<svg width="2000" height="2000" viewBox="0 0 2000 2000" fill="none" xmlns="http://www.w3.org/2000/svg">
<rect opacity="0.15" x="500.482" y="1000.33" width="499.845" height="499.836" transform="rotate(90.074 500.482 1000.33)" fill="white"/>
<rect opacity="0.15" x="1000.3" y="1500.15" width="499.845" height="499.836" transform="rotate(90.074 1000.3 1500.15)" fill="white"/>
<rect opacity="0.3" x="500.482" y="500.492" width="499.845" height="499.836" transform="rotate(90.074 500.482 500.492)" fill="white"/>
<rect opacity="0.3" x="1000.31" y="1000.33" width="499.845" height="499.836" transform="rotate(90.074 1000.31 1000.33)" fill="white"/>
<rect opacity="0.3" x="1500.16" y="1500.13" width="499.845" height="499.836" transform="rotate(90.074 1500.16 1500.13)" fill="white"/>
<rect opacity="0.45" x="1000.31" y="500.492" width="499.845" height="499.836" transform="rotate(90.074 1000.31 500.492)" fill="white"/>
<rect opacity="0.45" x="1500.16" y="1000.33" width="499.845" height="499.836" transform="rotate(90.074 1500.16 1000.33)" fill="white"/>
<rect opacity="0.6" x="1000.31" y="0.646484" width="499.845" height="499.836" transform="rotate(90.074 1000.31 0.646484)" fill="white"/>
<rect opacity="0.6" x="1999.99" y="1000.33" width="499.845" height="499.836" transform="rotate(90.074 1999.99 1000.33)" fill="white"/>
<rect opacity="0.6" x="1500.16" y="500.494" width="499.845" height="499.836" transform="rotate(90.074 1500.16 500.494)" fill="white"/>
<rect x="1999.99" y="0.648438" width="499.845" height="499.836" transform="rotate(90.074 1999.99 0.648438)" fill="white"/>
<rect opacity="0.8" x="1500.16" y="0.648438" width="499.845" height="499.836" transform="rotate(90.074 1500.16 0.648438)" fill="white"/>
<rect opacity="0.8" x="1999.99" y="500.494" width="499.845" height="499.836" transform="rotate(90.074 1999.99 500.494)" fill="white"/>
</svg>
