<svg width="2000" height="2000" viewBox="0 0 2000 2000" fill="none" xmlns="http://www.w3.org/2000/svg">
<rect opacity="0.15" x="500.482" y="1000.32" width="499.845" height="499.836" transform="rotate(90.074 500.482 1000.32)" fill="black"/>
<rect opacity="0.15" x="1000.3" y="1500.13" width="499.845" height="499.836" transform="rotate(90.074 1000.3 1500.13)" fill="black"/>
<rect opacity="0.3" x="500.482" y="500.492" width="499.845" height="499.836" transform="rotate(90.074 500.482 500.492)" fill="black"/>
<rect opacity="0.3" x="1000.3" y="1000.32" width="499.845" height="499.836" transform="rotate(90.074 1000.3 1000.32)" fill="black"/>
<rect opacity="0.3" x="1500.16" y="1500.12" width="499.845" height="499.836" transform="rotate(90.074 1500.16 1500.12)" fill="black"/>
<rect opacity="0.45" x="1000.3" y="500.492" width="499.845" height="499.836" transform="rotate(90.074 1000.3 500.492)" fill="black"/>
<rect opacity="0.45" x="1500.15" y="1000.32" width="499.845" height="499.836" transform="rotate(90.074 1500.15 1000.32)" fill="black"/>
<rect opacity="0.6" x="1000.3" y="0.646484" width="499.845" height="499.836" transform="rotate(90.074 1000.3 0.646484)" fill="black"/>
<rect opacity="0.6" x="1999.99" y="1000.32" width="499.845" height="499.836" transform="rotate(90.074 1999.99 1000.32)" fill="black"/>
<rect opacity="0.6" x="1500.15" y="500.492" width="499.845" height="499.836" transform="rotate(90.074 1500.15 500.492)" fill="black"/>
<rect x="1999.99" y="0.646484" width="499.845" height="499.836" transform="rotate(90.074 1999.99 0.646484)" fill="black"/>
<rect opacity="0.8" x="1500.15" y="0.646484" width="499.845" height="499.836" transform="rotate(90.074 1500.15 0.646484)" fill="black"/>
<rect opacity="0.8" x="1999.99" y="500.492" width="499.845" height="499.836" transform="rotate(90.074 1999.99 500.492)" fill="black"/>
</svg>
